# xmcd CD database file
#
# Track frame offsets:
#	150
#	11831
#	25559
#	40033
#	50531
#	60674
#	71287
#	80434
#	92525
#	105003
#	117290
#	131944
#
# Disc length: 1909 seconds
#
# Revision: 0
# Processed by: cddbd v1.5.1PL0 Copyright (c) Steve Scherf et al.
# Submitted via: CDex 1.51
#
DISCID=8c07730c
DTITLE=Jean Claude Pierric and François Rolland - Harlem Pop Trotters
DYEAR=2004
DGENRE=Jazz
TTITLE0=Mocassin
TTITLE1=Penwick
TTITLE2=Marathonic
TTITLE3=Ergocentric
TTITLE4=La moto verte
TTITLE5=Psychocross
TTITLE6=Ring modulator
TTITLE7=Plongée synthétique
TTITLE8=Kayak
TTITLE9=Cache catch
TTITLE10=Rugby
TTITLE11=White Beach
EXTD=YEAR: 2004
EXTT0=
EXTT1=
EXTT2=
EXTT3=
EXTT4=
EXTT5=
EXTT6=
EXTT7=
EXTT8=
EXTT9=
EXTT10=
EXTT11=
PLAYORDER=
